<?xml version="1.0" encoding="UTF-8" standalone="no"?>
<svg
   version="1.1"
   width="1080"
   height="1080"
   id="svg5"
   xmlns="http://www.w3.org/2000/svg"
   xmlns:svg="http://www.w3.org/2000/svg">
  <defs
     id="defs5" />
  <path
     d="M0 0 C356.4 0 712.8 0 1080 0 C1080 356.4 1080 712.8 1080 1080 C723.6 1080 367.2 1080 0 1080 C0 723.6 0 367.2 0 0 Z "
     fill="#FEFEFE"
     id="path1"
     transform="translate(0,0)" />
  <path
     d="m 525.02353,19.487883 c 8.16709,5.620288 15.14753,12.356275 21.73495,19.739793 1.29338,1.42565 2.58789,2.850284 3.88331,4.274082 3.58458,3.946708 7.15545,7.90553 10.72291,11.867711 14.5929,16.203864 29.57714,31.950429 45.21326,47.151381 10.249,9.96854 19.97896,20.31593 29.52939,30.95481 4.05984,4.52031 8.1684,8.99394 12.28908,13.45874 9.72182,10.55942 19.33178,21.13497 28.37073,32.2892 3.6808,4.52008 7.50119,8.88309 11.42104,13.19674 4.57748,5.04091 8.85525,10.21725 12.99238,15.63073 2.29166,2.92646 4.69095,5.72674 7.13496,8.52693 3.4762,3.99373 6.78104,8.06529 9.99511,12.27283 3.90341,5.10515 7.99467,9.98054 12.21579,14.82403 3.20366,3.74079 6.30928,7.55285 9.40492,11.38306 8.50876,10.52156 17.11904,20.94943 25.98274,31.17526 2.01514,2.33045 4.01668,4.66989 6.00977,7.01903 14.60039,17.14163 30.51452,32.7132 46.98982,48.0303 0.95185,0.88696 1.9037,1.77394 2.88438,2.68779 1.74266,1.62177 3.48963,3.23894 5.24206,4.85017 1.12947,1.05153 1.12947,1.05153 2.28174,2.12429 0.64998,0.5997 1.29995,1.1994 1.96962,1.81725 3.87704,4.18594 5.59454,8.60698 5.42922,14.29556 -1.06544,7.52648 -3.27112,11.99076 -9.13132,16.94204 -7.71071,4.484 -15.36736,5.21261 -24.15191,5.29005 -1.15076,0.0187 -2.30154,0.0375 -3.48717,0.0568 -22.32349,0.26209 -44.67549,-0.26649 -66.99422,-0.7161 -28.7233,-0.46586 -57.53593,2.1558 -86.11883,4.74953 -8.2648,0.74452 -16.53717,1.33587 -24.81836,1.86524 -6.39945,0.42263 -12.77336,0.99806 -19.15425,1.63441 -9.28698,0.92103 -18.57791,1.61945 -27.88915,2.24105 -13.6917,0.91532 -27.37529,1.90239 -41.05054,3.03884 -1.75754,0.14599 -1.75754,0.14599 -3.55057,0.29495 -1.1766,0.0978 -2.3532,0.19551 -3.56547,0.29622 -35.28603,2.92944 -70.41524,4.74939 -105.82378,4.85017 -3.46349,0.0246 -6.92293,0.096 -10.38541,0.17704 -20.63861,0.40325 -40.37916,-2.56628 -60.64875,-6.26045 -2.63937,-0.47352 -5.27873,-0.94703 -7.91819,-1.42014 -15.29608,-2.75733 -30.56779,-5.63044 -45.79669,-8.73826 -0.80567,-0.16348 -1.61138,-0.32688 -2.44147,-0.49538 -2.21337,-0.45171 -4.42482,-0.91155 -6.63561,-1.37568 -1.21532,-0.2546 -2.43062,-0.50921 -3.68274,-0.77147 -2.65788,-0.69433 -2.65788,-0.69433 -3.53592,-1.94829 0.26996,-1.78375 0.58105,-3.56191 0.93981,-5.32992 3.16359,-0.51565 6.3272,-1.03119 9.49082,-1.54663 0.99106,-0.16149 1.98212,-0.32298 3.00322,-0.48936 5.50806,-0.8971 11.01646,-1.79213 16.52541,-2.68374 2.2509,-0.36438 4.50179,-0.72877 6.75266,-1.09319 1.11696,-0.18079 2.23393,-0.36159 3.38473,-0.54785 6.30109,-1.0218 12.59863,-2.06197 18.89315,-3.12339 13.30109,-2.22327 26.59397,-4.14523 40.01246,-5.51174 1.79998,-0.19361 1.79998,-0.19361 3.63631,-0.39115 9.41284,-0.87612 18.72073,-0.81628 28.16501,-0.67775 11.90991,0.16898 23.79701,-0.0334 35.70283,-0.35527 1.15381,-0.0308 2.30761,-0.0615 3.49636,-0.0932 24.96917,-0.69274 49.82225,-2.37936 74.71928,-4.34201 4.2795,-0.33565 8.55938,-0.66611 12.83943,-0.99492 1.15206,-0.0885 1.15206,-0.0885 2.32741,-0.17885 1.57874,-0.12129 3.15747,-0.24259 4.73619,-0.36384 14.32231,-1.10095 28.64341,-2.21683 42.96386,-3.34151 8.836,-0.69391 17.67225,-1.38443 26.50967,-2.06004 0.8401,-0.0643 1.68018,-0.12863 2.54571,-0.19485 3.0912,-0.23648 6.18242,-0.47289 9.27372,-0.70807 8.55485,-0.65185 17.10426,-1.34803 25.65095,-2.09885 37.20963,-3.25713 74.07882,-4.78212 111.43136,-4.00871 -2.75435,-4.0181 -5.7708,-7.59934 -9.09359,-11.15213 -5.62706,-6.08573 -11.05314,-12.32108 -16.43093,-18.62852 -1.61739,-1.8653 -3.23486,-3.73054 -4.85248,-5.59563 -4.97738,-5.78278 -9.8142,-11.67465 -14.6452,-17.57948 -4.47358,-5.46583 -8.99991,-10.88745 -13.52384,-16.31158 -1.50643,-1.8093 -3.00757,-3.62287 -4.50792,-5.43721 -1.00758,-1.2168 -2.01521,-2.43353 -3.02301,-3.65013 -0.48464,-0.58535 -0.96874,-1.17114 -1.4678,-1.77445 -3.83281,-4.61166 -7.80831,-9.08124 -11.86713,-13.49598 -0.51203,-0.65563 -1.02413,-1.31121 -1.55167,-1.98673 0.12406,-0.70355 0.24812,-1.40711 0.37592,-2.13198 -0.57983,-0.40325 -1.15967,-0.80647 -1.75711,-1.22193 -2.05474,-1.6025 -3.5078,-3.14757 -5.12109,-5.18169 -0.54704,-0.6832 -1.09409,-1.36642 -1.65772,-2.07033 -0.57456,-0.72596 -1.14913,-1.45194 -1.74111,-2.1999 -1.21784,-1.51982 -2.43701,-3.03858 -3.65752,-4.55629 -0.5971,-0.74271 -1.1942,-1.48543 -1.80949,-2.25057 -2.99565,-3.68708 -6.11683,-7.26254 -9.23384,-10.8468 -2.27679,-2.64648 -4.50906,-5.32251 -6.72914,-8.01637 -6.02838,-7.3116 -12.2573,-14.41157 -18.62073,-21.43267 -1.91357,-2.11262 -3.82202,-4.22986 -5.72988,-6.34765 -17.18355,-19.06009 -34.48957,-37.92425 -52.73787,-55.97351 -14.92662,-14.77391 -29.257,-30.022613 -43.28538,-45.648452 -3.76079,-4.182005 -7.54673,-8.340239 -11.35717,-12.477054 -1.52373,-1.65522 -3.03597,-3.321221 -4.52709,-5.005861 -2.74451,-3.230331 -2.74451,-3.230331 -6.56543,-4.622495 -3.36904,0.820762 -5.09914,2.55729 -7.67219,4.868431 -1.03407,0.922807 -2.06815,1.845612 -3.13359,2.79639 -1.07959,0.982879 -2.15889,1.96612 -3.23787,2.949717 -0.99803,0.895157 -1.99605,1.790314 -3.02434,2.712602 -7.39958,6.688344 -14.62811,13.553216 -21.82878,20.454774 -4.18479,4.009437 -8.41329,7.951868 -12.71321,11.838238 -24.68575,23.21696 -44.67173,51.44498 -61.92822,80.44559 -0.8584,1.43618 -1.71684,2.87232 -2.5753,4.30844 -14.78276,24.78187 -28.95907,49.9245 -41.60168,75.87483 -8.59307,17.6061 -19.15094,34.23215 -30.2889,50.32902 -12.23344,17.02903 -12.23344,17.02903 -16.91477,37.00261 -0.4369,5.17477 -2.10011,9.22608 -5.34583,13.27309 -4.99905,4.00119 -9.60117,6.77582 -16.16001,6.20549 -11.32284,-1.71865 -11.32284,-1.71865 -15.5055,-7.39244 -4.73888,-7.62496 -7.88319,-15.70252 -5.83292,-24.74998 5.72334,-19.26811 16.33994,-35.75834 27.64307,-52.19039 9.93868,-14.46314 18.32586,-29.30415 26.38763,-44.86991 1.25092,-2.41516 2.50223,-4.83011 3.75379,-7.24491 0.42302,-0.8164 0.84603,-1.63279 1.28187,-2.47389 31.64532,-60.99457 66.26054,-119.96737 117.02799,-167.089241 0.90084,-0.837024 1.80165,-1.674056 2.72977,-2.536447 26.16573,-24.28248 26.16573,-24.28248 39.87163,-35.484653 1.58167,-1.307517 3.13653,-2.647316 4.68841,-3.990051 12.4089,-10.417785 26.79137,-15.914908 41.5804,-6.587712 z"
     fill="#34ccff"
     id="path2"
     style="fill:#1e96ff;fill-opacity:1;stroke-width:1.08243" />
  <path
     d="m 673.85712,668.90981 c 2.95028,0.86585 5.90737,1.70441 8.86605,2.54105 43.32936,12.50984 89.49487,38.97123 112.09591,79.42928 0.72491,1.33584 1.44702,2.67321 2.16597,4.01226 0.65726,1.20257 1.31451,2.40513 1.99168,3.64409 13.733,26.53239 17.70861,59.09349 8.83025,87.70177 -6.86764,20.3387 -20.02407,37.61538 -34.90871,52.73081 -0.51367,0.52869 -1.02735,1.05741 -1.55661,1.6021 -8.32685,8.52887 -17.36866,15.76308 -26.99322,22.75445 -1.04507,0.76001 -2.09013,1.52001 -3.16687,2.30305 -20.20069,14.22039 -42.41701,25.97284 -65.31219,35.18816 -1.44688,0.60872 -2.89273,1.21984 -4.33777,1.83288 -60.79513,25.6664 -118.59533,39.76969 -184.31655,30.13797 -1.09699,-0.16057 -2.19398,-0.32099 -3.32422,-0.48638 -3.21084,-0.58873 -6.25928,-1.42837 -9.3741,-2.39866 0.15839,-1.81449 0.31683,-3.62897 0.48008,-5.49843 4.82251,-2.0541 9.71544,-3.84331 14.64848,-5.60779 8.36155,-2.9958 16.64407,-6.04441 24.72753,-9.73268 18.53227,-8.41025 37.46703,-13.30267 57.22549,-17.93901 35.74396,-8.39197 71.16904,-20.36299 104.12682,-36.6368 2.539,-1.24574 5.0987,-2.40723 7.68284,-3.55517 29.22312,-13.59174 55.38659,-33.05476 74.47729,-59.20877 0.69589,-0.9498 0.69589,-0.9498 1.40581,-1.91877 3.07307,-4.35224 5.1854,-8.66912 7.15621,-13.62171 0.37876,-0.94757 0.75769,-1.8951 1.14801,-2.87136 6.50003,-19.43815 1.2842,-40.40873 -7.34731,-58.25908 -14.51753,-28.14723 -47.03428,-49.0744 -76.45727,-59.01372 -2.5529,-0.79799 -5.11233,-1.56684 -7.67852,-2.32088 -0.93908,-0.27775 -1.87787,-0.55643 -2.84519,-0.84336 -1.97429,-0.58253 -3.94913,-1.16314 -5.92509,-1.73991 -2.97188,-0.87113 -5.93831,-1.7594 -8.90492,-2.64825 -10.96917,-3.24429 -21.6156,-5.816 -33.00221,-7.1417 -0.83553,-0.10849 -1.67107,-0.21696 -2.53191,-0.32872 -49.87417,-6.26395 -103.69529,1.61789 -151.31523,17.36764 -0.80337,0.2628 -1.60672,0.52563 -2.43443,0.79639 -35.11027,11.55335 -70.32743,25.33701 -100.60297,46.88895 -0.94902,0.63546 -1.89807,1.27091 -2.87585,1.92559 -24.50106,16.51712 -43.1461,40.40911 -49.60682,69.56511 -3.78866,25.41649 13.63547,47.86588 27.92651,67.2218 1.29602,1.74604 2.59299,3.49137 3.88998,5.23668 1.61143,2.20785 3.22086,4.41718 4.82845,6.62783 3.20968,4.40394 6.43711,8.79447 9.67542,13.17739 0.71699,0.97089 1.434,1.94176 2.17273,2.94209 1.48683,2.01173 2.97532,4.02224 4.46537,6.03159 3.14021,4.2453 6.26751,8.48647 9.2233,12.86288 17.29946,25.54744 40.7443,44.99538 70.01577,55.05583 6.51748,2.6176 10.61782,6.5345 13.63397,12.8371 2.65572,6.4363 1.2196,11.8846 -1.35753,18.1406 -3.35015,5.0227 -7.13377,8.0431 -12.99597,9.733 -19.77539,3.522 -44.47691,-13.9912 -59.87129,-24.4856 -17.47969,-13.5343 -31.48617,-30.16736 -44.11379,-48.14406 -2.86495,-4.06051 -5.77076,-8.09151 -8.67787,-12.12193 -0.60955,-0.84546 -1.21917,-1.69085 -1.84722,-2.56192 -4.0038,-5.53698 -8.0682,-11.02432 -12.1787,-16.48241 -9.67301,-12.85627 -18.91399,-25.94281 -27.65309,-39.45222 -0.69252,-1.04714 -1.38506,-2.09427 -2.09856,-3.17315 -14.58948,-22.62728 -21.00837,-47.68916 -15.85934,-74.25488 3.26788,-14.63126 8.77432,-27.43377 16.30781,-40.34176 0.39745,-0.69862 0.7949,-1.39721 1.20441,-2.117 13.04308,-22.71884 32.09099,-39.96083 53.98038,-53.92263 3.26553,-2.10538 6.4161,-4.3138 9.57462,-6.5747 5.66712,-3.90531 11.57722,-7.26097 17.6104,-10.56854 0.88763,-0.48668 1.77528,-0.97334 2.68981,-1.47477 6.01162,-3.24758 12.12017,-6.20159 18.34913,-9.0075 1.20493,-0.54608 2.40987,-1.09213 3.65131,-1.65478 11.01374,-4.84941 22.20508,-9.18802 33.46495,-13.4302 0.81658,-0.30984 1.63315,-0.61967 2.47446,-0.93887 12.31845,-4.65855 24.77065,-8.65372 37.45477,-12.19578 0.78681,-0.22113 1.57364,-0.44226 2.3843,-0.67009 17.4243,-4.82541 35.23509,-8.04788 53.00129,-11.32809 1.09286,-0.20324 2.18572,-0.40647 3.31171,-0.61586 48.00359,-8.77579 96.39563,-6.78968 143.15179,7.00039 z"
     fill="#34ccff"
     id="path3"
     style="fill:#1e96ff;fill-opacity:1;stroke-width:1.08243" />
  <path
     d="m 772.75613,506.55985 c 1.1451,0.067 2.29027,0.13378 3.47009,0.20274 21.85882,1.30671 43.20349,4.86456 64.40439,10.34354 5.44603,1.39738 10.93042,2.61775 16.41676,3.84535 1.01497,0.22828 2.02988,0.45654 3.07559,0.69171 4.1789,0.93954 8.35824,1.87686 12.53921,2.80721 3.1024,0.69126 6.20324,1.38943 9.30387,2.08864 0.9389,0.20707 1.87776,0.41412 2.8451,0.62747 4.80739,1.08952 9.24395,2.36194 13.75831,4.40356 -0.47479,1.75841 -0.94958,3.51683 -1.43875,5.32852 -1.01222,0.11777 -2.02455,0.2347 -3.06751,0.35565 -2.25765,0.26175 -4.5153,0.52375 -6.77288,0.78626 -4.53894,0.52768 -9.07812,1.05315 -13.61779,1.57466 -10.02575,1.15576 -20.04303,2.35637 -30.05259,3.64517 -32.81111,4.19166 -64.49772,5.39346 -97.52238,3.77323 -14.77151,-0.70767 -29.51511,-0.90621 -44.30236,-0.93818 -21.32503,-0.0461 -42.62116,-0.43693 -63.93648,-1.08357 -1.07154,-0.0312 -2.14307,-0.0625 -3.24706,-0.0947 -1.98836,-0.0583 -3.97658,-0.12016 -5.96469,-0.18617 -1.33348,-0.0392 -1.33348,-0.0392 -2.69392,-0.0789 -1.14334,-0.0364 -1.14334,-0.0364 -2.30978,-0.0736 -2.05957,0.0164 -4.1181,0.143 -6.17131,0.30585 -4.12325,0.29978 -8.16909,0.33407 -12.30264,0.29508 -0.79151,-0.006 -1.58301,-0.0129 -2.39851,-0.0196 -1.71303,-0.0141 -3.42604,-0.0298 -5.13908,-0.0466 -2.75822,-0.0263 -5.51644,-0.0476 -8.27474,-0.0673 -7.84246,-0.0565 -15.68487,-0.11749 -23.52718,-0.19265 -25.61203,-0.2411 -51.1117,0.0827 -76.69764,1.28237 -4.70905,0.22041 -9.41884,0.41893 -14.12907,0.61236 -8.99316,0.37209 -17.98443,0.77867 -26.97515,1.2056 -1.17454,0.0555 -1.17454,0.0555 -2.3728,0.11213 -36.09403,1.71408 -72.11471,4.4506 -108.00719,8.69704 -3.48053,0.37409 -6.96044,0.59217 -10.45451,0.793 -22.60699,1.30067 -45.15512,4.27275 -67.60667,7.16156 -4.24709,0.54142 -8.47545,1.00692 -12.74685,1.30767 -7.4395,0.56015 -13.45322,1.16037 -19.96586,5.2082 -5.73369,3.55212 -10.06648,3.99698 -16.72712,3.14773 -6.0409,-1.6488 -9.41909,-4.84294 -12.78119,-10.00631 -2.87274,-5.72926 -3.33202,-11.47499 -1.67921,-17.65506 4.33529,-8.85925 13.1306,-14.80103 22.21858,-18.09863 7.70412,-2.42675 15.21792,-3.37822 23.24995,-3.96777 8.21178,-0.65768 16.35349,-1.43109 24.51166,-2.57558 21.87225,-2.98017 43.71254,-5.50039 65.72317,-7.20269 9.89889,-0.76774 19.78315,-1.60436 29.66261,-2.59421 26.27401,-2.61648 52.53346,-4.60401 78.89644,-6.01893 0.72919,-0.0394 1.45836,-0.079 2.20963,-0.11975 39.01871,-2.11358 78.01116,-3.42701 117.08833,-3.48265 1.95809,-0.004 3.91618,-0.008 5.87429,-0.0122 36.64556,-0.064 73.28595,0.3303 109.92707,0.87171 4.134,0.0594 8.26804,0.11363 12.40215,0.16644 28.47085,0.3717 56.88444,1.09922 85.30571,2.87496 z"
     fill="#9a9a9a"
     id="path4"
     style="display:inline;fill:#505064;fill-opacity:1;stroke-width:1.08243" />
</svg>
